<svg xmlns="http://www.w3.org/2000/svg" width="32" height="32" viewBox="0 0 32 32" fill="none">
  <defs>
    <linearGradient id="bodyGrad" x1="4" y1="10" x2="28" y2="20" gradientUnits="userSpaceOnUse">
      <stop offset="0" stop-color="#ff8433"/>
      <stop offset="1" stop-color="#f05a13"/>
    </linearGradient>
    <linearGradient id="cutGrad" x1="25" y1="11" x2="31" y2="21" gradientUnits="userSpaceOnUse">
      <stop offset="0" stop-color="#fff4cf"/>
      <stop offset="1" stop-color="#f0d9a0"/>
    </linearGradient>
  </defs>
  <!-- Carrot body -->
  <path d="M3 14.5c0-.8.5-1.5 1.2-1.8 4.3-1.8 11.8-4.9 17.9-5.2 2.9-.1 6 1.6 6.9 4.3 1 3.1-1 6.1-3.6 7.6-5.2 3-13.6 5.4-18.4 5.8-1 .1-1.9-.6-2-1.6-.2-1.7-.5-5.2-.5-8.1Z" fill="url(#bodyGrad)" stroke="#d74b0f" stroke-width="1.1" stroke-linejoin="round"/>
  <!-- Texture marks -->
  <path d="M7.5 15.1c1.2-.6 2.4-.9 3.6-1.1m-1.2 4.4c1-.4 2-.7 3-.7m-3.4 3.4c.9-.1 1.8-.3 2.6-.6" stroke="#ffb37a" stroke-width=".9" stroke-linecap="round" opacity=".55"/>
  <!-- Eye -->
  <circle cx="23.5" cy="16.5" r="3.4" fill="#f8f8f8"/>
  <circle cx="24" cy="16.5" r="1.8" fill="#141414"/>
  <!-- Eyebrow -->
  <rect x="17.2" y="12.1" width="8.2" height="2.4" rx="1.1" fill="#0b0b0b" transform="rotate(-12 17.2 12.1)"/>
  <!-- Cut front -->
  <ellipse cx="29.5" cy="17" rx="2.1" ry="4.1" fill="url(#cutGrad)" stroke="#d1b577" stroke-width=".9"/>
  <path d="M28.4 13.7c.8.5 1.5 1.5 1.9 2.8" stroke="#f6e7b4" stroke-width=".8" stroke-linecap="round"/>
</svg>






